<svg xmlns="http://www.w3.org/2000/svg" viewBox="0 0 64 64">
	<defs>
		<linearGradient id="g" x1="0" y1="0" x2="1" y2="1">
			<stop offset="0" stop-color="#0f6e70"/>
			<stop offset="1" stop-color="#084f52"/>
		</linearGradient>
		<linearGradient id="n" x1="0" y1="0" x2="0" y2="1">
			<stop offset="0" stop-color="#f5f7fa"/>
			<stop offset="1" stop-color="#8a949e"/>
		</linearGradient>
	</defs>
	<rect width="64" height="64" rx="12" fill="url(#g)"/>
	<path d="M41 17c5 1 7 9 1 12M37 28c-8-3-18 3-23 9 5 2 11 3 18 2M27 43l-7 4 16 2M36 49c6 0 9 2 8 5" fill="none" stroke="#ccb287" stroke-width="2.2" stroke-linecap="round" stroke-linejoin="round"/>
	<path d="M32 15v36" stroke="url(#n)" stroke-width="2.5" stroke-linecap="round"/>
	<path d="M32 15l2 3h-4z" fill="#dbe2e8"/>
	<path d="M32 51l-1.6 7h3.2z" fill="#d6dde4"/>
</svg>